<?xml version="1.0" encoding="utf-8"?>
<!-- Generator: Adobe Illustrator 28.1.0, SVG Export Plug-In . SVG Version: 6.00 Build 0)  -->
<svg version="1.1" id="Calque_1" xmlns="http://www.w3.org/2000/svg" xmlns:xlink="http://www.w3.org/1999/xlink" x="0px" y="0px"
	 viewBox="0 0 500 500" style="enable-background:new 0 0 500 500;" xml:space="preserve">
<style type="text/css">
	.st0{fill:#172C66;}
</style>
<g>
	<path class="st0" d="M184,420.51l-1.81,27.58c-28.79,0-53.23-7.2-73.35-21.59c-20.12-14.39-30.18-35.91-30.18-64.54
		c0-6.03,0-12.66,0-19.89s0-13.79,0-19.67c0-13.71-1.28-24.53-3.84-32.44c-2.56-7.91-6.63-14.2-12.21-18.88
		c-5.73-4.67-13.11-8.1-22.15-10.28c-9.04-2.18-20.12-3.96-33.23-5.31v-24.64c14.01-1.96,25.2-3.84,33.57-5.65
		c8.36-1.81,15.56-5.27,21.59-10.4c5.88-4.97,10.06-11.3,12.54-18.99c2.49-7.69,3.73-18.31,3.73-31.87c0-5.88,0-12.47,0-19.78
		c0-7.31,0-13.98,0-20c0-28.33,10.06-49.73,30.18-64.2s44.56-21.7,73.35-21.7L184,65.86c-22.91,0-40.95,5.01-54.14,15.03
		c-13.19,10.02-19.78,24.45-19.78,43.29c0,8.44,0,15.07,0,19.89c0,4.82,0,13.56,0,26.22c0,21.4-4.67,37.97-14.01,49.73
		c-9.35,11.75-21.33,19.37-35.94,22.83v0.68c15.37,3.92,27.54,11.79,36.51,23.62c8.96,11.83,13.45,28.14,13.45,48.94
		c0,8.89,0,17.14,0,24.75c0,7.61,0,14.65,0,21.13c0,18.68,6.59,33.12,19.78,43.29C143.04,415.43,161.09,420.51,184,420.51z"/>
	<path class="st0" d="M492.77,255.5c-13.41,1.36-24.49,3.13-33.23,5.31c-8.74,2.19-16.13,5.62-22.15,10.28
		c-5.58,4.67-9.65,11.04-12.21,19.1c-2.56,8.06-3.84,18.8-3.84,32.21c0,5.88,0,12.43,0,19.67s0,13.86,0,19.89
		c0,27.58-9.65,48.83-28.93,63.74c-19.29,14.92-44.16,22.38-74.59,22.38L316,420.51c22.9,0,40.95-5.01,54.14-15.03
		c13.18-10.02,19.78-24.53,19.78-43.51c0-8.44,0-15.03,0-19.78s0-13.45,0-26.11c0-19.29,3.96-34.85,11.87-46.68
		c7.91-11.83,20.6-20.46,38.09-25.88v-0.68c-15.07-3.01-27.16-10.77-36.28-23.28c-9.12-12.51-13.67-28.93-13.67-49.28
		c0-9.04,0-17.48,0-25.32c0-7.83,0-14.77,0-20.8c0-18.99-6.59-33.45-19.78-43.4c-13.19-9.95-31.23-14.92-54.14-14.92l1.81-27.58
		c30.44,0,55.3,7.5,74.59,22.49c19.29,15,28.93,36.13,28.93,63.4c0,6.03,0,12.7,0,20c0,7.31,0,13.9,0,19.78
		c0,13.56,1.24,24.23,3.73,31.98c2.49,7.76,6.67,14.05,12.54,18.87c5.72,4.52,13.22,7.95,22.49,10.28
		c9.27,2.34,20.15,4.26,32.66,5.76V255.5z"/>
</g>
<g>
	<path class="st0" d="M204.2,377.5c-5.33-1.09-10.67-2.14-15.66-4.4c-11.09-5.01-19.91-12.36-24.07-24.2
		c-4.55-12.96-0.17-27.4,10.93-36.78c17.07-14.41,42.89-17.12,62.71-6.57c2.58,1.37,2.58,1.37,2.58-1.66
		c0-56.18,0.01-112.37-0.02-168.55c0-2.62,0.27-5.11,1.82-7.3c2.38-3.36,5.7-4.72,9.7-4.13c3.79,0.57,6.76,2.69,7.83,6.38
		c4.42,15.23,14.77,25.82,27.01,34.92c7.81,5.81,16.15,10.86,23.91,16.75c15.16,11.52,24.57,26.46,27.31,45.4
		c1.52,10.55-0.1,20.87-2.69,31.08c-3.45,13.61-9.25,26.09-18.14,37.03c-4.04,4.98-10.01,5.71-14.63,1.91
		c-4.45-3.66-4.92-9.68-0.83-14.53c2.68-3.17,3.42-6.22,2.22-10.38c-6.38-22.01-20.34-37.11-41.07-46.34
		c-2.28-1.02-2.37-0.03-2.37,1.82c0.03,35.64-0.19,71.28,0.12,106.92c0.15,16.98-7.93,28.38-22.12,36.32
		c-6.13,3.43-12.84,5.07-19.68,6.29C214.1,377.5,209.15,377.5,204.2,377.5z"/>
</g>
</svg>
